<!DOCTYPE svg PUBLIC "-//W3C//DTD SVG 1.1//EN" "http://www.w3.org/Graphics/SVG/1.1/DTD/svg11.dtd">
<!-- Uploaded to: SVG Repo, www.svgrepo.com, Transformed by: SVG Repo Mixer Tools -->
<svg height="800px" width="800px" version="1.1" id="Layer_1" xmlns="http://www.w3.org/2000/svg" xmlns:xlink="http://www.w3.org/1999/xlink" viewBox="-51.2 -51.2 614.40 614.40" xml:space="preserve" fill="#000000" stroke="#000000" stroke-width="13.824000000000002" transform="rotate(-45)">
<g id="SVGRepo_bgCarrier" stroke-width="0">
<path transform="translate(-51.2, -51.2), scale(19.2)" d="M16,28.005297545124503C18.38154182431038,27.84716600594731,20.74852582686701,27.77025201507425,22.899529061548904,26.735876778996843C25.249997720888196,25.605582535270994,27.5472429950422,24.132670804502606,28.804761960592806,21.847738847700263C30.104747323232637,19.485644772108774,30.035893561517213,16.69342825189799,29.908622835475477,14.00024193689581C29.769949930754144,11.065773179841484,30.081551632613277,7.679270667211883,28.035584291413073,5.5711068454527695C25.994001814969153,3.467461186352632,22.495128516569462,4.284687926940305,19.681442118122614,3.462159557600403C16.872309347083956,2.640962355702864,14.148040079816116,-0.5452516878215266,11.520181418049734,0.7431390229130272C8.747685635211159,2.1024426506655525,9.434551458591026,6.366064146102699,8.089472424032987,9.145488836406662C7.178470538396607,11.027951553315482,5.819695636520345,12.522913301579491,4.908502380538037,14.40528339442445C3.599923503119329,17.108584507343824,0.8040146518557838,19.683119012631224,1.584696266159808,22.583248630876795C2.344058357798601,25.40417902373339,5.751066287649632,26.66449244701529,8.485391990388777,27.692958303959596C10.88043327440456,28.59380862479545,13.446764206601912,28.174829359250527,16,28.005297545124503" fill="#7ed0ec" strokewidth="0"/>
</g>
<g id="SVGRepo_tracerCarrier" stroke-linecap="round" stroke-linejoin="round" stroke="#CCCCCC" stroke-width="44.032"> <path style="fill:#FFFFFF;" d="M501.551,387.058c0,28.498-23.312,51.808-51.809,51.808H62.258 c-28.496,0-51.809-23.311-51.809-51.808V124.942c0-28.497,23.313-51.808,51.809-51.808h387.484 c28.497,0,51.809,23.311,51.809,51.808V387.058z"/> <path style="fill:#D50707;" d="M62.258,438.867h10.885V162.547l182.716,147.187l182.716-147.187v276.319h11.166 c26.683,0,48.816-20.435,51.528-46.43V124.942c0-28.498-23.313-51.808-51.809-51.808L255.859,229.627L62.258,73.133 c-28.496,0-51.809,23.311-51.809,51.808v262.117C10.449,415.556,33.762,438.867,62.258,438.867z"/> <path d="M449.742,62.684H62.258C27.929,62.684,0,90.614,0,124.942v262.117c0,34.329,27.929,62.257,62.258,62.257h387.484 c34.33,0,62.258-27.928,62.258-62.257V124.942C512,90.614,484.072,62.684,449.742,62.684z M419.912,83.582L255.859,216.19 L91.806,83.582H419.912z M428.126,428.418H83.592V184.382l165.712,133.49c3.826,3.082,9.284,3.082,13.11,0l165.711-133.49V428.418z M491.102,387.058c0,22.806-18.554,41.359-41.36,41.359h-0.717v-265.87c0-4.023-2.309-7.688-5.939-9.425 c-3.632-1.738-7.934-1.235-11.065,1.288L255.859,296.318L79.698,154.41c-3.134-2.523-7.438-3.026-11.065-1.288 c-3.63,1.737-5.939,5.402-5.939,9.425v265.87h-0.436c-22.805,0.001-41.359-18.553-41.359-41.358V124.942 c0-21.626,16.688-39.418,37.861-41.2l190.532,154.012c1.915,1.549,4.242,2.323,6.568,2.323c2.327,0,4.653-0.774,6.568-2.323 L452.983,83.721c21.295,1.66,38.119,19.507,38.119,41.22V387.058z"/> <path d="M398.522,263.111c2.309,0,4.634-0.762,6.568-2.328l3.635-2.942c4.485-3.631,5.177-10.21,1.546-14.695 c-3.63-4.486-10.211-5.178-14.695-1.547l-3.636,2.942c-4.485,3.631-5.177,10.211-1.546,14.696 C392.459,261.787,395.477,263.111,398.522,263.111z"/> <path d="M297.54,344.054c2.309,0,4.634-0.762,6.568-2.327l74.708-59.674c4.485-3.631,5.177-10.21,1.546-14.695 c-3.63-4.486-10.211-5.179-14.695-1.549l-74.708,59.674c-4.485,3.631-5.177,10.21-1.546,14.695 C291.476,342.729,294.495,344.054,297.54,344.054z"/> </g>
<g id="SVGRepo_iconCarrier"> <path style="fill:#FFFFFF;" d="M501.551,387.058c0,28.498-23.312,51.808-51.809,51.808H62.258 c-28.496,0-51.809-23.311-51.809-51.808V124.942c0-28.497,23.313-51.808,51.809-51.808h387.484 c28.497,0,51.809,23.311,51.809,51.808V387.058z"/> <path style="fill:#D50707;" d="M62.258,438.867h10.885V162.547l182.716,147.187l182.716-147.187v276.319h11.166 c26.683,0,48.816-20.435,51.528-46.43V124.942c0-28.498-23.313-51.808-51.809-51.808L255.859,229.627L62.258,73.133 c-28.496,0-51.809,23.311-51.809,51.808v262.117C10.449,415.556,33.762,438.867,62.258,438.867z"/> <path d="M449.742,62.684H62.258C27.929,62.684,0,90.614,0,124.942v262.117c0,34.329,27.929,62.257,62.258,62.257h387.484 c34.33,0,62.258-27.928,62.258-62.257V124.942C512,90.614,484.072,62.684,449.742,62.684z M419.912,83.582L255.859,216.19 L91.806,83.582H419.912z M428.126,428.418H83.592V184.382l165.712,133.49c3.826,3.082,9.284,3.082,13.11,0l165.711-133.49V428.418z M491.102,387.058c0,22.806-18.554,41.359-41.36,41.359h-0.717v-265.87c0-4.023-2.309-7.688-5.939-9.425 c-3.632-1.738-7.934-1.235-11.065,1.288L255.859,296.318L79.698,154.41c-3.134-2.523-7.438-3.026-11.065-1.288 c-3.63,1.737-5.939,5.402-5.939,9.425v265.87h-0.436c-22.805,0.001-41.359-18.553-41.359-41.358V124.942 c0-21.626,16.688-39.418,37.861-41.2l190.532,154.012c1.915,1.549,4.242,2.323,6.568,2.323c2.327,0,4.653-0.774,6.568-2.323 L452.983,83.721c21.295,1.66,38.119,19.507,38.119,41.22V387.058z"/> <path d="M398.522,263.111c2.309,0,4.634-0.762,6.568-2.328l3.635-2.942c4.485-3.631,5.177-10.21,1.546-14.695 c-3.63-4.486-10.211-5.178-14.695-1.547l-3.636,2.942c-4.485,3.631-5.177,10.211-1.546,14.696 C392.459,261.787,395.477,263.111,398.522,263.111z"/> <path d="M297.54,344.054c2.309,0,4.634-0.762,6.568-2.327l74.708-59.674c4.485-3.631,5.177-10.21,1.546-14.695 c-3.63-4.486-10.211-5.179-14.695-1.549l-74.708,59.674c-4.485,3.631-5.177,10.21-1.546,14.695 C291.476,342.729,294.495,344.054,297.54,344.054z"/> </g>
</svg>