<!DOCTYPE svg PUBLIC "-//W3C//DTD SVG 1.1//EN" "http://www.w3.org/Graphics/SVG/1.1/DTD/svg11.dtd">
<!-- Uploaded to: SVG Repo, www.svgrepo.com, Transformed by: SVG Repo Mixer Tools -->
<svg version="1.0" id="Layer_1" xmlns="http://www.w3.org/2000/svg" xmlns:xlink="http://www.w3.org/1999/xlink" width="800px" height="800px" viewBox="-6.4 -6.4 76.80 76.80" enable-background="new 0 0 64 64" xml:space="preserve" fill="#000000" stroke="#000000" stroke-width="1.6" transform="rotate(0)">
<g id="SVGRepo_bgCarrier" stroke-width="0">
<path transform="translate(-6.4, -6.4), scale(2.4)" d="M16,29.25897440686822C18.302872234507607,29.203844187098934,21.02943740358927,29.014718838817043,22.481716772541404,27.226662770313077C23.98798197520995,25.372138982406383,22.309673454354684,22.392438153774002,23.331245151718424,20.23269636183977C24.22288927228056,18.3476391742924,27.72140359577458,18.084103155863943,27.792000152170658,16C27.861594711889584,13.94547710333893,24.457448070529566,13.477486857996686,23.62372038444614,11.598442983813586C22.631971639786194,9.363253443525744,24.053530481281527,6.465854867044417,22.66777057759464,4.451082586393211C21.17972687493708,2.2875987126460178,18.427502560670725,-0.4868552070266481,16.000000000000004,0.514228131622076C13.075205317851559,1.7203909067740826,13.531042861595042,6.184028675466246,11.89675275050104,8.892967287850546C11.16111057131464,10.112340452118527,10.090153022737786,11.004882217824326,9.070973733240923,11.999524819664654C7.617562380708081,13.417945370519053,4.939794060820885,13.995395639172004,4.6143977250903845,15.999999999999998C4.304880994577967,17.906778041435256,6.906404534868727,19.039976468325673,7.637920758947745,20.82784870080649C8.527208430288537,23.0013243968233,7.682891202185134,25.873994031506903,9.33659623935818,27.541353864777143C10.97982863262643,29.19815458054911,13.667172877066788,29.314821739622463,16,29.25897440686822" fill="#7ed0ec" strokewidth="0"/>
</g>
<g id="SVGRepo_tracerCarrier" stroke-linecap="round" stroke-linejoin="round" stroke="#CCCCCC" stroke-width="4.864"> <g> <path fill="#F76D57" d="M32,52.789l-12-18C18.5,32,16,28.031,16,24c0-8.836,7.164-16,16-16s16,7.164,16,16 c0,4.031-2.055,8-4,10.789L32,52.789z"/> <g> <path fill="#394240" d="M32,0C18.746,0,8,10.746,8,24c0,5.219,1.711,10.008,4.555,13.93c0.051,0.094,0.059,0.199,0.117,0.289 l16,24C29.414,63.332,30.664,64,32,64s2.586-0.668,3.328-1.781l16-24c0.059-0.09,0.066-0.195,0.117-0.289 C54.289,34.008,56,29.219,56,24C56,10.746,45.254,0,32,0z M44,34.789l-12,18l-12-18C18.5,32,16,28.031,16,24 c0-8.836,7.164-16,16-16s16,7.164,16,16C48,28.031,45.945,32,44,34.789z"/> <circle fill="#394240" cx="32" cy="24" r="8"/> </g> </g> </g>
<g id="SVGRepo_iconCarrier"> <g> <path fill="#F76D57" d="M32,52.789l-12-18C18.5,32,16,28.031,16,24c0-8.836,7.164-16,16-16s16,7.164,16,16 c0,4.031-2.055,8-4,10.789L32,52.789z"/> <g> <path fill="#394240" d="M32,0C18.746,0,8,10.746,8,24c0,5.219,1.711,10.008,4.555,13.93c0.051,0.094,0.059,0.199,0.117,0.289 l16,24C29.414,63.332,30.664,64,32,64s2.586-0.668,3.328-1.781l16-24c0.059-0.09,0.066-0.195,0.117-0.289 C54.289,34.008,56,29.219,56,24C56,10.746,45.254,0,32,0z M44,34.789l-12,18l-12-18C18.5,32,16,28.031,16,24 c0-8.836,7.164-16,16-16s16,7.164,16,16C48,28.031,45.945,32,44,34.789z"/> <circle fill="#394240" cx="32" cy="24" r="8"/> </g> </g> </g>
</svg>