<!DOCTYPE svg PUBLIC "-//W3C//DTD SVG 1.1//EN" "http://www.w3.org/Graphics/SVG/1.1/DTD/svg11.dtd">
<!-- Uploaded to: SVG Repo, www.svgrepo.com, Transformed by: SVG Repo Mixer Tools -->
<svg width="800px" height="800px" viewBox="-3.2 -3.2 38.40 38.40" fill="none" xmlns="http://www.w3.org/2000/svg" transform="rotate(0)">
<g id="SVGRepo_bgCarrier" stroke-width="0">
<path transform="translate(-3.2, -3.2), scale(1.2)" d="M16,27.638248038861683C17.88795775832195,27.454534493787158,19.62625622978861,26.849311678803925,21.477791787796114,26.43706024910874C23.938458668264857,25.88918341515343,26.85857044850192,26.467907222594675,28.74860063142149,24.799723650719656C30.619081411761226,23.148794825630358,31.152770650164502,20.341055103289268,31.21036238134234,17.846872365871853C31.26605175513811,15.435076923396032,30.516050715543575,12.972805721630682,29.066211320727948,11.044639677965986C27.72727775604599,9.263969182065303,25.510568575088772,8.469357389549277,23.47621475704048,7.5610980385952296C21.857932623133724,6.838598408706465,20.118422813626506,6.696270675726859,18.395608735906894,6.280633293237825C16.68151372031908,5.867099427436452,15.071338864992116,5.2750334192562205,13.315819765072074,5.109852698699802C10.98293190980364,4.890346059935171,8.036422380310547,3.485055688411917,6.3884983729999405,5.1508574100613025C4.690022471840394,6.867759444244896,7.094088248358357,10.039655536592258,6.214041524417237,12.288675488812336C5.319405399704918,14.574979658486706,1.1736510018513924,15.327168025956716,1.4519883460216985,17.766448426966594C1.729285195487807,20.196610186901307,5.719997620024394,20.14154357182202,7.321094389287252,21.99061600351009C8.683178384475934,23.563657691868816,8.188528523063452,26.42559433740121,9.93258016644647,27.5605026281792C11.652877113413943,28.679953004044407,13.957189082954898,27.837030047533776,16,27.638248038861683" fill="#7ed0ec" strokewidth="0"/>
</g>
<g id="SVGRepo_tracerCarrier" stroke-linecap="round" stroke-linejoin="round"/>
<g id="SVGRepo_iconCarrier"> <path d="M6 28L4 3H28L26 28L16 31L6 28Z" fill="#1172B8"/> <path d="M26 5H16V29.5L24 27L26 5Z" fill="#33AADD"/> <path d="M19.5 17.5H9.5L9 14L17 11.5H9L8.5 8.5H24L23.5 12L17 14.5H23L22 24L16 26L10 24L9.5 19H12.5L13 21.5L16 22.5L19 21.5L19.5 17.5Z" fill="white"/> </g>
</svg>