<!DOCTYPE svg PUBLIC "-//W3C//DTD SVG 1.1//EN" "http://www.w3.org/Graphics/SVG/1.1/DTD/svg11.dtd">
<!-- Uploaded to: SVG Repo, www.svgrepo.com, Transformed by: SVG Repo Mixer Tools -->
<svg width="800px" height="800px" viewBox="-3.2 -3.2 38.40 38.40" fill="none" xmlns="http://www.w3.org/2000/svg" transform="rotate(-45)">
<g id="SVGRepo_bgCarrier" stroke-width="0">
<path transform="translate(-3.2, -3.2), scale(1.2)" d="M16,28.48138112248853C17.81963168073659,28.121041086619904,19.49058031645362,27.446718864426927,21.283699115088844,26.971714265532306C23.457088398234376,26.395974439778332,26.004629604394488,26.788259787961252,27.748536416021516,25.36914515009301C29.499879148660966,23.943979486857817,30.80410901533871,21.598161649052948,30.655819377278895,19.345095134704618C30.50253108882786,17.016080685215595,27.86859579539094,15.649769020889948,26.967138065553815,13.49682230380153C26.24768259201869,11.778550610553523,26.866708680169143,9.689705968694753,25.93710769832512,8.075421048127243C24.97107238296686,6.397866621253604,23.296052628033262,5.285926221699397,21.651109282028038,4.2653506615002446C19.89498657357219,3.1757958623557583,18.06666237064296,1.911930236578476,16,1.91012102086097C13.933134448707985,1.908311627273276,12.289602276281034,3.5575623427880942,10.344123870657572,4.255452201057716C8.171535504876475,5.034811859993276,5.547933647738019,4.758636077231641,3.813604561011635,6.281673931008873C2.059284219071298,7.822267529349464,1.4123841935758268,10.275679210636119,0.8959203800096898,12.552592390067954C0.37980994214284447,14.82794765631038,-0.1687861757585326,17.35231266783936,0.8235215748351195,19.46393216476678C1.816212290853044,21.576366607718818,4.636166403730037,22.081703086623843,6.191668428608304,23.821883417520006C7.640521429057155,25.442752727502608,7.638586942216577,28.352103148551542,9.602294487099662,29.284972386506336C11.56833666557683,30.218950704001763,13.864851462777033,28.904202679528204,16,28.48138112248853" fill="#7ed0ec" strokewidth="0"/>
</g>
<g id="SVGRepo_tracerCarrier" stroke-linecap="round" stroke-linejoin="round"/>
<g id="SVGRepo_iconCarrier"> <path fill-rule="evenodd" clip-rule="evenodd" d="M16 16C16 13.7909 17.7909 12 20 12C22.2091 12 24 13.7909 24 16C24 18.2091 22.2091 20 20 20C17.7909 20 16 18.2091 16 16Z" fill="#1ABCFE"/> <path fill-rule="evenodd" clip-rule="evenodd" d="M8 24C8 21.7909 9.79086 20 12 20H16V24C16 26.2091 14.2091 28 12 28C9.79086 28 8 26.2091 8 24Z" fill="#0ACF83"/> <path fill-rule="evenodd" clip-rule="evenodd" d="M16 4V12H20C22.2091 12 24 10.2091 24 8C24 5.79086 22.2091 4 20 4H16Z" fill="#FF7262"/> <path fill-rule="evenodd" clip-rule="evenodd" d="M8 8C8 10.2091 9.79086 12 12 12H16V4H12C9.79086 4 8 5.79086 8 8Z" fill="#F24E1E"/> <path fill-rule="evenodd" clip-rule="evenodd" d="M8 16C8 18.2091 9.79086 20 12 20H16V12H12C9.79086 12 8 13.7909 8 16Z" fill="#A259FF"/> </g>
</svg>