<!DOCTYPE svg PUBLIC "-//W3C//DTD SVG 1.1//EN" "http://www.w3.org/Graphics/SVG/1.1/DTD/svg11.dtd">
<!-- Uploaded to: SVG Repo, www.svgrepo.com, Transformed by: SVG Repo Mixer Tools -->
<svg width="800px" height="800px" viewBox="-3.2 -3.2 38.40 38.40" xmlns="http://www.w3.org/2000/svg" fill="#000000" stroke="#000000" stroke-width="1.7600000000000002" transform="rotate(0)">
<g id="SVGRepo_bgCarrier" stroke-width="0">
<path transform="translate(-3.2, -3.2), scale(1.2)" d="M16,31.319465022534132C19.440414641259785,31.697394035951326,22.79276202692664,29.351561964812273,24.89826206776894,26.604535787108418C26.758844343575653,24.177051522910457,26.46188411234282,20.880131272717932,26.343877680631977,17.823904720243515C26.252041053480575,15.445445052235256,25.71684974111277,13.121191238489782,24.30369141939027,11.205861523747446C23.01641207993813,9.46114238497375,20.86973249174294,8.882704447396774,18.972510849635047,7.833093561543837C16.539448007305545,6.4870361539148655,14.338352953462318,3.304839810601076,11.721511502634787,4.244949464092736C9.106773136484357,5.184303576889934,9.545442881420897,9.083546495852243,8.42046538190636,11.623953647911545C7.480219008417837,13.747203768859592,5.6804611738496416,15.49202735770255,5.71271347334979,17.8139261729271C5.748869606903152,20.416868752579937,7.026298593160421,22.743720999978937,8.60368956626674,24.814579531343647C10.655026347750631,27.507652046062432,12.634888430416874,30.94980803983229,16,31.319465022534132" fill="#7ed0ec" strokewidth="0"/>
</g>
<g id="SVGRepo_tracerCarrier" stroke-linecap="round" stroke-linejoin="round" stroke="#CCCCCC" stroke-width="4.224">
<title>file_type_flutter</title>
<polyline points="15.383 18.316 18.744 15.042 27.093 15.042 19.697 22.438 15.383 18.316 15.383 18.316 15.383 18.316 15.383 18.316 15.383 18.316" style="fill:#40d0fd"/>
<polygon points="4.907 16.125 9.106 20.424 27.093 2.287 18.744 2.287 4.907 16.125" style="fill:#41d0fd;isolation:isolate"/>
<polygon points="11.176 22.479 15.435 26.675 19.697 22.438 15.383 18.316 11.176 22.479" style="fill:#1fbcfd"/>
<polygon points="15.435 26.675 19.697 22.438 26.989 29.813 18.593 29.813 15.435 26.675" style="fill:#095a9d"/>
<polygon points="15.435 26.675 19.406 25.354 18.068 24.057 15.435 26.675" style="fill:#0e5199"/>
</g>
<g id="SVGRepo_iconCarrier">
<title>file_type_flutter</title>
<polyline points="15.383 18.316 18.744 15.042 27.093 15.042 19.697 22.438 15.383 18.316 15.383 18.316 15.383 18.316 15.383 18.316 15.383 18.316" style="fill:#40d0fd"/>
<polygon points="4.907 16.125 9.106 20.424 27.093 2.287 18.744 2.287 4.907 16.125" style="fill:#41d0fd;isolation:isolate"/>
<polygon points="11.176 22.479 15.435 26.675 19.697 22.438 15.383 18.316 11.176 22.479" style="fill:#1fbcfd"/>
<polygon points="15.435 26.675 19.697 22.438 26.989 29.813 18.593 29.813 15.435 26.675" style="fill:#095a9d"/>
<polygon points="15.435 26.675 19.406 25.354 18.068 24.057 15.435 26.675" style="fill:#0e5199"/>
</g>
</svg>