<!DOCTYPE svg PUBLIC "-//W3C//DTD SVG 1.1//EN" "http://www.w3.org/Graphics/SVG/1.1/DTD/svg11.dtd">
<!-- Uploaded to: SVG Repo, www.svgrepo.com, Transformed by: SVG Repo Mixer Tools -->
<svg xmlns="http://www.w3.org/2000/svg" aria-label="Go" role="img" viewBox="-51.2 -51.2 614.40 614.40" width="135px" height="135px" fill="#000000" stroke="#000000" stroke-width="11.264" transform="matrix(1, 0, 0, 1, 0, 0)rotate(-45)">
<g id="SVGRepo_bgCarrier" stroke-width="0">
<path transform="translate(-51.2, -51.2), scale(19.2)" d="M16,30.25880744627544C17.95826001068688,30.275425968852982,19.703033798885958,29.124435651998525,21.44498684309041,28.229640683005684C23.12590833112232,27.36619600189499,25.049647732399734,26.661045827275803,26.083469864032,25.079197046129803C27.110138545847434,23.508293741509718,26.622199886684133,21.420345057749444,27.083994700943194,19.601408191277606C27.515705675056854,17.9009668215846,28.932838999384213,16.404623236377976,28.728150521024535,14.662217473141297C28.5233663655731,12.918997260955534,26.702607276098142,11.83712405030242,25.983780549496984,10.23586161221777C25.177478376006885,8.43973837920939,25.832899110152013,5.815698049032353,24.238397528984073,4.660818587451937C22.6429876969052,3.5052812900089645,20.363636787276214,4.739982369908268,18.39371377689483,4.738462091747211C16.773867064536592,4.737211983205871,15.194721427280514,4.858670300637658,13.588035507205465,4.652599224205886C11.248009220935698,4.352471035077466,8.991412740580804,2.566311151792436,6.731243804432671,3.2426515471659467C4.605087009566243,3.8788897080694147,2.7443024562316225,5.891582178507323,2.2317435435597037,8.050893428602382C1.6932407917744394,10.3195010391413,3.975908544600149,12.40750048242936,4.002339694365032,14.738995088598866C4.024948469862699,16.733317643380175,1.7663662032003842,18.527731255108854,2.3720573203369355,20.427986995755578C2.976708540392157,22.324980231236598,5.5375278458443,22.750850713988523,6.990087943711011,24.112561254250465C8.31877727561181,25.358148456212103,9.091492072300463,27.11124641277833,10.596004692535582,28.13757218657088C12.212269542264245,29.240131414217792,14.043555967673502,30.24220433476549,16,30.25880744627544" fill="#7ed0ec" strokewidth="0"/>
</g>
<g id="SVGRepo_tracerCarrier" stroke-linecap="round" stroke-linejoin="round" stroke="#CCCCCC" stroke-width="5.12"/>
<g id="SVGRepo_iconCarrier">
<rect width="512" height="512" rx="15%" fill="#ffffff"/>
<path fill="#00acd7" d="M308 220c1 2-1 2-2 2l-34 9c-3 2-5-1-5-1-21-26-65-8-67 30-2 36 45 50 67 14h-38c-3 0-8-1-3-10l8-17c2-4 3-4 9-4h70c0 81-90 117-138 68-22-23-29-75 16-112 36-29 96-29 117 21m16 96c-45-39-21-120 50-133 73-13 105 55 76 106-24 43-88 61-126 27m94-51c9-25-9-49-36-47-30 3-51 42-32 65 19 22 58 12 68-18m-321-2v-1l2-5 2-1h41l1 1-1 5-1 1H97m-48-18s-2 0-1-1l4-6 2-1h92l1 1-2 5-1 1-95 1m30-19l-1-1 5-5 2-1h72v1l-3 5-2 1H79"/>
</g>
</svg>