<!DOCTYPE svg PUBLIC "-//W3C//DTD SVG 1.1//EN" "http://www.w3.org/Graphics/SVG/1.1/DTD/svg11.dtd">
<!-- Uploaded to: SVG Repo, www.svgrepo.com, Transformed by: SVG Repo Mixer Tools -->
<svg height="800px" width="800px" xmlns="http://www.w3.org/2000/svg" aria-label="HTML5" role="img" viewBox="-51.2 -51.2 614.40 614.40" fill="#000000" transform="rotate(45)matrix(1, 0, 0, 1, 0, 0)">
<g id="SVGRepo_bgCarrier" stroke-width="0">
<path transform="translate(-51.2, -51.2), scale(19.2)" d="M16,29.027862891554832C20.00463551908745,29.53481478485395,24.297434033638517,27.761940964565042,26.541811900072112,24.406814460911363C28.639409162600096,21.271110676466986,27.377082241616886,17.263613240479337,26.285215438900877,13.652466693374054C25.319197260231842,10.457541083707952,23.984264523759897,7.105359192697665,20.91439032265455,5.795163343899798C17.959186411801642,4.533907786601529,14.841768095530476,6.191351731621197,11.916195656587814,7.51989290148955C8.860647117975084,8.907457938691367,5.113150927334234,10.073419973376799,4.315280221758929,13.333038960538953C3.51044994103352,16.621090578631584,6.3250240870837064,19.388195511837562,8.346517043153863,22.103448990349808C10.508012198540873,25.006752324565465,12.409096043228503,28.57328580186368,16,29.027862891554832" fill="#7ed0ec" strokewidth="0"/>
</g>
<g id="SVGRepo_tracerCarrier" stroke-linecap="round" stroke-linejoin="round" stroke="#CCCCCC" stroke-width="3.072"/>
<g id="SVGRepo_iconCarrier">
<path fill="#e34f26" d="M71 460L30 0h451l-41 460-185 52"/>
<path fill="#ef652a" d="M256 472l149-41 35-394H256"/>
<path fill="#ebebeb" d="M256 208h-75l-5-58h80V94H114l15 171h127zm-1 147l-63-17-4-45h-56l7 89 116 32z"/>
<path fill="#ffffff" d="M255 208v57h70l-7 73-63 17v59l116-32 16-174zm0-114v56h137l5-56z"/>
</g>
</svg>