<!DOCTYPE svg PUBLIC "-//W3C//DTD SVG 1.1//EN" "http://www.w3.org/Graphics/SVG/1.1/DTD/svg11.dtd">
<!-- Uploaded to: SVG Repo, www.svgrepo.com, Transformed by: SVG Repo Mixer Tools -->
<svg width="800px" height="800px" viewBox="-3.2 -3.2 38.40 38.40" xmlns="http://www.w3.org/2000/svg" fill="#000000" stroke="#000000" stroke-width="1.248" transform="rotate(45)">
<g id="SVGRepo_bgCarrier" stroke-width="0" transform="translate(0,0), scale(1)">
<path transform="translate(-3.2, -3.2), scale(1.2)" d="M16,25.57017081384273C18.324910831578446,25.5739820723921,19.548437990231886,29.128956496478832,21.8725513086936,29.189966195965155C23.918072934609896,29.24366265676102,26.185937958416044,27.75661646291924,26.947931890776978,25.857562151152887C27.793044420485725,23.751358249373038,25.053603499744547,21.324002001583843,25.87727646284239,19.209321667915184C26.7764142854859,16.900894469272238,31.906743671666625,16.808234437587675,31.41869126109495,14.379430246205049C30.90003541585894,11.798327349246172,26.023644626749174,13.189768214262017,24.272636064328537,11.223791341352115C22.996475218557922,9.790958422802703,24.755694616760305,7.086105956114138,23.575449935680304,5.573287669095118C22.482056671854277,4.171794105145471,20.274150217074094,4.415772237767594,18.569140506047095,3.9131442197701496C16.751731637539308,3.3773815132229723,15.021036882741821,2.5978543494305537,13.129163603341594,2.4937766488942152C10.965595091630277,2.3747521676545786,8.616268595905707,2.1688154409320104,6.7458150473619,3.2627071424925305C4.871618787816285,4.358787682428322,3.737022227131525,6.439101246619293,2.9338640613923204,8.456262898576604C2.168802107169961,10.37774449617512,1.8216223389827861,12.531391916908227,2.249731466421565,14.554788541080534C2.653120020911853,16.461346909196894,4.565421964626104,17.669313310606984,5.267765457394923,19.487114387483544C5.924683580814667,21.1873458048268,5.394227531671094,23.18380407954184,6.212930853253752,24.812316641552922C7.100594012933864,26.577999726335136,8.165658490559617,29.01815330112636,10.136014831958104,29.170726329050964C12.448150833734767,29.349764802119324,13.680945620959486,25.566369155857178,16,25.57017081384273" fill="#7ed0ec" strokewidth="0"/>
</g>
<g id="SVGRepo_tracerCarrier" stroke-linecap="round" stroke-linejoin="round" stroke="#CCCCCC" stroke-width="2.304">
<title>file_type_js_official</title>
<rect x="2" y="2" width="28" height="28" style="fill:#f5de19"/>
<path d="M20.809,23.875a2.866,2.866,0,0,0,2.6,1.6c1.09,0,1.787-.545,1.787-1.3,0-.9-.716-1.222-1.916-1.747l-.658-.282c-1.9-.809-3.16-1.822-3.16-3.964,0-1.973,1.5-3.476,3.853-3.476a3.889,3.889,0,0,1,3.742,2.107L25,18.128A1.789,1.789,0,0,0,23.311,17a1.145,1.145,0,0,0-1.259,1.128c0,.789.489,1.109,1.618,1.6l.658.282c2.236.959,3.5,1.936,3.5,4.133,0,2.369-1.861,3.667-4.36,3.667a5.055,5.055,0,0,1-4.795-2.691Zm-9.295.228c.413.733.789,1.353,1.693,1.353.864,0,1.41-.338,1.41-1.653V14.856h2.631v8.982c0,2.724-1.6,3.964-3.929,3.964a4.085,4.085,0,0,1-3.947-2.4Z"/>
</g>
<g id="SVGRepo_iconCarrier">
<title>file_type_js_official</title>
<rect x="2" y="2" width="28" height="28" style="fill:#f5de19"/>
<path d="M20.809,23.875a2.866,2.866,0,0,0,2.6,1.6c1.09,0,1.787-.545,1.787-1.3,0-.9-.716-1.222-1.916-1.747l-.658-.282c-1.9-.809-3.16-1.822-3.16-3.964,0-1.973,1.5-3.476,3.853-3.476a3.889,3.889,0,0,1,3.742,2.107L25,18.128A1.789,1.789,0,0,0,23.311,17a1.145,1.145,0,0,0-1.259,1.128c0,.789.489,1.109,1.618,1.6l.658.282c2.236.959,3.5,1.936,3.5,4.133,0,2.369-1.861,3.667-4.36,3.667a5.055,5.055,0,0,1-4.795-2.691Zm-9.295.228c.413.733.789,1.353,1.693,1.353.864,0,1.41-.338,1.41-1.653V14.856h2.631v8.982c0,2.724-1.6,3.964-3.929,3.964a4.085,4.085,0,0,1-3.947-2.4Z"/>
</g>
</svg>