<!DOCTYPE svg PUBLIC "-//W3C//DTD SVG 1.1//EN" "http://www.w3.org/Graphics/SVG/1.1/DTD/svg11.dtd">
<!-- Uploaded to: SVG Repo, www.svgrepo.com, Transformed by: SVG Repo Mixer Tools -->
<svg width="800px" height="800px" viewBox="-25.6 -25.6 307.20 307.20" version="1.1" xmlns="http://www.w3.org/2000/svg" xmlns:xlink="http://www.w3.org/1999/xlink" preserveAspectRatio="xMidYMid" fill="#000000" stroke="#000000" stroke-width="2.304" transform="rotate(0)">
<g id="SVGRepo_bgCarrier" stroke-width="0">
<path transform="translate(-25.6, -25.6), scale(9.6)" d="M16,28.441917575895786C17.698535857976495,27.535740237281246,18.688138304621145,25.787390990373865,20.065767668051848,24.44265355620168C21.056206222710262,23.47586246125885,22.18002116897744,22.698119354641815,23.015073361394776,21.59433432677017C23.8367571845796,20.50821981810666,24.128230197639997,19.147052406407482,24.91375615156697,18.034506673900218C26.182568381425554,16.237479313282392,28.535608294233526,15.150035329567755,29.071551180878124,13.01650374280771C29.609651675389802,10.874382948781435,28.86348999946727,8.529038118977716,27.78582125892762,6.601121179880712C26.652338940979085,4.57335543078268,25.12909739845299,2.102031734079424,22.821411780194158,1.835192483596245C20.265123975672644,1.5396071939966696,18.543474971200293,4.84753348631279,16,5.238318687991093C13.978761582422514,5.548866293765331,11.745367410820522,2.5479141816213744,10.11848069491814,3.786899318644256C8.296177002273687,5.17470780479079,10.481246036354259,8.670039541810366,9.097245381818373,10.495236882015032C7.765816863285314,12.251102952406525,3.868841414500822,10.991776874052412,3.091659646134369,13.053755549023128C2.3729794727000786,14.96052080274306,6.108442038126376,16.2053971382029,6.1774313602807975,18.24193719376524C6.2705361972664555,20.990358601116956,2.874879003033352,23.274559730350894,3.5283866380502396,25.945779772585144C4.096124206013265,28.26641367035586,6.7801040345190895,29.811962176750317,9.122716817159489,30.28082567945541C11.479073326477828,30.752439927771643,13.879778620596522,29.57306624010496,16,28.441917575895786" fill="#7ed0ec" strokewidth="0"/>
</g>
<g id="SVGRepo_tracerCarrier" stroke-linecap="round" stroke-linejoin="round"/>
<g id="SVGRepo_iconCarrier"> <defs> <radialGradient id="radialGradient-1" cx="0.8366" cy="-125.811" r="363.0565" gradientTransform="matrix(0.463 0 0 0.463 76.4644 81.9182)" gradientUnits="userSpaceOnUse"> <stop offset="0" style="stop-color:#FFFFFF"/> <stop offset="0.5" style="stop-color:#4C6B97"/> <stop offset="1" style="stop-color:#231F20"/> </radialGradient> </defs> <g> <ellipse fill="url(#radialGradient-1)" cx="128" cy="67.3" rx="128" ry="67.3"/> <ellipse fill="#6f9be2" cx="128" cy="67.3" rx="123" ry="62.3"/> <g> <path fill="#FFFFFF" d="M152.9,87.5c0,0,6.1-31.4,6.1-31.4c1.4-7.1,0.2-12.4-3.4-15.7c-3.5-3.2-9.5-4.8-18.3-4.8h-10.6l3-15.6 c0.1-0.6,0-1.2-0.4-1.7c-0.4-0.5-0.9-0.7-1.5-0.7h-14.6c-1,0-1.8,0.7-2,1.6l-6.5,33.3c-0.6-3.8-2-7-4.4-9.6 c-4.3-4.9-11-7.4-20.1-7.4H52.1c-1,0-1.8,0.7-2,1.6L37,104.7c-0.1,0.6,0,1.2,0.4,1.7c0.4,0.5,0.9,0.7,1.5,0.7h14.7 c1,0,1.8-0.7,2-1.6l3.2-16.3h10.9c5.7,0,10.6-0.6,14.3-1.8c3.9-1.3,7.4-3.4,10.5-6.3c2.5-2.3,4.6-4.9,6.2-7.7l-2.6,13.5 c-0.1,0.6,0,1.2,0.4,1.7s0.9,0.7,1.5,0.7h14.6c1,0,1.8-0.7,2-1.6l7.2-37h10c4.3,0,5.5,0.8,5.9,1.2c0.3,0.3,0.9,1.5,0.2,5.2 l-5.8,29.9c-0.1,0.6,0,1.2,0.4,1.7c0.4,0.5,0.9,0.7,1.5,0.7H151C151.9,89.1,152.7,88.4,152.9,87.5z M85.3,61.5 c-0.9,4.7-2.6,8.1-5.1,10c-2.5,1.9-6.6,2.9-12,2.9h-6.5l4.7-24.2h8.4c6.2,0,8.7,1.3,9.7,2.4C85.8,54.2,86.1,57.3,85.3,61.5z"/> <path fill="#FFFFFF" d="M215.3,42.9c-4.3-4.9-11-7.4-20.1-7.4h-28.3c-1,0-1.8,0.7-2,1.6l-13.1,67.5c-0.1,0.6,0,1.2,0.4,1.7 c0.4,0.5,0.9,0.7,1.5,0.7h14.7c1,0,1.8-0.7,2-1.6l3.2-16.3h10.9c5.7,0,10.6-0.6,14.3-1.8c3.9-1.3,7.4-3.4,10.5-6.3 c2.6-2.4,4.8-5.1,6.4-8c1.6-2.9,2.8-6.1,3.5-9.6C220.9,54.7,219.6,47.9,215.3,42.9z M200,61.5c-0.9,4.7-2.6,8.1-5.1,10 c-2.5,1.9-6.6,2.9-12,2.9h-6.5l4.7-24.2h8.4c6.2,0,8.7,1.3,9.7,2.4C200.6,54.2,200.9,57.3,200,61.5z"/> </g> <g> <path fill="#000004" d="M74.8,48.2c5.6,0,9.3,1,11.2,3.1c1.9,2.1,2.3,5.6,1.3,10.6c-1,5.2-3,9-5.9,11.2c-2.9,2.2-7.3,3.3-13.2,3.3 h-8.9l5.5-28.2H74.8z M39,105h14.7l3.5-17.9h12.6c5.6,0,10.1-0.6,13.7-1.8c3.6-1.2,6.8-3.1,9.8-5.9c2.5-2.3,4.5-4.8,6-7.5 c1.5-2.7,2.6-5.7,3.2-9c1.6-8,0.4-14.2-3.5-18.7c-3.9-4.5-10.1-6.7-18.6-6.7H52.1L39,105z"/> <path fill="#000004" d="M113.3,19.6h14.6l-3.5,17.9h13c8.2,0,13.8,1.4,16.9,4.3c3.1,2.9,4,7.5,2.8,13.9L151,87.1h-14.8l5.8-29.9 c0.7-3.4,0.4-5.7-0.7-6.9c-1.1-1.2-3.6-1.9-7.3-1.9h-11.7l-7.5,38.7h-14.6L113.3,19.6z"/> <path fill="#000004" d="M189.5,48.2c5.6,0,9.3,1,11.2,3.1c1.9,2.1,2.3,5.6,1.3,10.6c-1,5.2-3,9-5.9,11.2c-2.9,2.2-7.3,3.3-13.2,3.3 h-8.9l5.5-28.2H189.5z M153.7,105h14.7l3.5-17.9h12.6c5.6,0,10.1-0.6,13.7-1.8c3.6-1.2,6.8-3.1,9.8-5.9c2.5-2.3,4.5-4.8,6-7.5 c1.5-2.7,2.6-5.7,3.2-9c1.6-8,0.4-14.2-3.5-18.7c-3.9-4.5-10.1-6.7-18.6-6.7h-28.3L153.7,105z"/> </g> </g> </g>
</svg>