<!DOCTYPE svg PUBLIC "-//W3C//DTD SVG 1.1//EN" "http://www.w3.org/Graphics/SVG/1.1/DTD/svg11.dtd">
<!-- Uploaded to: SVG Repo, www.svgrepo.com, Transformed by: SVG Repo Mixer Tools -->
<svg width="800px" height="800px" viewBox="-3.2 -3.2 38.40 38.40" xmlns="http://www.w3.org/2000/svg" fill="#000000" stroke="#000000" stroke-width="0.8" transform="rotate(45)">
<g id="SVGRepo_bgCarrier" stroke-width="0">
<path transform="translate(-3.2, -3.2), scale(1.2)" d="M16,24.9862709277206C18.99567175496849,24.862875817667728,22.18232416653197,28.01705467896427,24.626795655374405,26.28101471486857C27.04419490840374,24.564201190313476,25.38502162424516,20.655525855760008,26.136599729483706,17.787356024950107C27.009063024638166,14.457864540020822,30.265403717480776,11.613650232570583,29.3388739136498,8.298797555267814C28.346067708241,4.746827295450335,24.91376420200278,2.2929186210856543,21.45097630178396,1.0235656968663154C17.982436005352902,-0.24789588117869243,14.146547935740156,0.11067175168890642,10.711752879722905,1.4706604485427448C7.3588836844724,2.798211039831126,4.5280234281677725,5.214976847441827,2.830148492560644,8.39638268699248C1.1769258224568953,11.49412101061339,0.8785278966595553,15.102838930976525,1.6028083195038487,18.538613339702913C2.3061936896079276,21.875267731914303,3.6433610530056693,25.623403835530024,6.755510844525128,27.017153162735383C9.724450398358666,28.34676702545649,12.749684611087005,25.120155097258287,16,24.9862709277206" fill="#7ed0ec" strokewidth="0"/>
</g>
<g id="SVGRepo_tracerCarrier" stroke-linecap="round" stroke-linejoin="round" stroke="#CCCCCC" stroke-width="1.536">
<title>file_type_tailwind</title>
<path d="M9,13.7q1.4-5.6,7-5.6c5.6,0,6.3,4.2,9.1,4.9q2.8.7,4.9-2.1-1.4,5.6-7,5.6c-5.6,0-6.3-4.2-9.1-4.9Q11.1,10.9,9,13.7ZM2,22.1q1.4-5.6,7-5.6c5.6,0,6.3,4.2,9.1,4.9q2.8.7,4.9-2.1-1.4,5.6-7,5.6c-5.6,0-6.3-4.2-9.1-4.9Q4.1,19.3,2,22.1Z" style="fill:#44a8b3"/>
</g>
<g id="SVGRepo_iconCarrier">
<title>file_type_tailwind</title>
<path d="M9,13.7q1.4-5.6,7-5.6c5.6,0,6.3,4.2,9.1,4.9q2.8.7,4.9-2.1-1.4,5.6-7,5.6c-5.6,0-6.3-4.2-9.1-4.9Q11.1,10.9,9,13.7ZM2,22.1q1.4-5.6,7-5.6c5.6,0,6.3,4.2,9.1,4.9q2.8.7,4.9-2.1-1.4,5.6-7,5.6c-5.6,0-6.3-4.2-9.1-4.9Q4.1,19.3,2,22.1Z" style="fill:#44a8b3"/>
</g>
</svg>