<!DOCTYPE svg PUBLIC "-//W3C//DTD SVG 1.1//EN" "http://www.w3.org/Graphics/SVG/1.1/DTD/svg11.dtd">
<!-- Uploaded to: SVG Repo, www.svgrepo.com, Transformed by: SVG Repo Mixer Tools -->
<svg width="800px" height="800px" viewBox="-3.2 -3.2 38.40 38.40" xmlns="http://www.w3.org/2000/svg" fill="#000000" stroke="#000000" stroke-width="0.8320000000000001" transform="rotate(45)">
<g id="SVGRepo_bgCarrier" stroke-width="0">
<path transform="translate(-3.2, -3.2), scale(1.2)" d="M16,28.678578660284217C18.155518106531623,28.888655831935328,19.85449744564195,26.953302893956835,21.877538700735098,26.18019565312556C24.337921993603437,25.23995771475033,28.046986926176942,25.990356718363152,29.21371743146205,23.628943316050268C30.410911878467513,21.20587217877644,27.043791652952695,18.699248287076358,26.907384303643514,16C26.78136612375653,13.506334094731073,29.813719912278124,10.904536375292299,28.46451457191134,8.803609156588978C27.088907047236916,6.6615695393607055,23.67403674529234,7.479152766567597,21.163711816464605,7.056188778239537C19.432956044559322,6.764574192533806,17.705922749577688,7.116240133129648,16,6.703466368152908C13.593524160646481,6.121183206279712,11.494330417061361,3.3282810694469953,9.159286616958289,4.151536860555369C6.969348334084113,4.923633458257951,6.330616173045712,7.9293192843616005,6.002821393675989,10.228126240502057C5.717733210991209,12.227434157270375,6.957837525028829,14.04643174911461,7.46977356311522,15.999999999999998C7.848893011217157,17.446734869210648,8.123149527351679,18.84791540246075,8.6303476480632,20.254870769224663C9.238011695263143,21.9405161955091,9.568838387818664,23.746997541130938,10.748667925204096,25.095573960962582C12.168157185230982,26.718087793357984,13.85435976154678,28.46946418738361,16,28.678578660284217" fill="#7ed0ec" strokewidth="0"/>
</g>
<g id="SVGRepo_tracerCarrier" stroke-linecap="round" stroke-linejoin="round"/>
<g id="SVGRepo_iconCarrier">
<title>file_type_vscode</title>
<path d="M29.01,5.03,23.244,2.254a1.742,1.742,0,0,0-1.989.338L2.38,19.8A1.166,1.166,0,0,0,2.3,21.447c.025.027.05.053.077.077l1.541,1.4a1.165,1.165,0,0,0,1.489.066L28.142,5.75A1.158,1.158,0,0,1,30,6.672V6.605A1.748,1.748,0,0,0,29.01,5.03Z" style="fill:#0065a9"/>
<path d="M29.01,26.97l-5.766,2.777a1.745,1.745,0,0,1-1.989-.338L2.38,12.2A1.166,1.166,0,0,1,2.3,10.553c.025-.027.05-.053.077-.077l1.541-1.4A1.165,1.165,0,0,1,5.41,9.01L28.142,26.25A1.158,1.158,0,0,0,30,25.328V25.4A1.749,1.749,0,0,1,29.01,26.97Z" style="fill:#007acc"/>
<path d="M23.244,29.747a1.745,1.745,0,0,1-1.989-.338A1.025,1.025,0,0,0,23,28.684V3.316a1.024,1.024,0,0,0-1.749-.724,1.744,1.744,0,0,1,1.989-.339l5.765,2.772A1.748,1.748,0,0,1,30,6.6V25.4a1.748,1.748,0,0,1-.991,1.576Z" style="fill:#1f9cf0"/>
</g>
</svg>